<!--?xml version="1.0" standalone="no"?-->
              <svg id="sw-js-blob-svg" viewBox="0 0 100 100" xmlns="http://www.w3.org/2000/svg" version="1.1">
                    <defs> 
                        <linearGradient id="sw-gradient" x1="0" x2="1" y1="1" y2="0">
                            <stop id="stop1" stop-color="rgba(47, 3, 26, 1)" offset="0%"></stop>
                            <stop id="stop2" stop-color="rgba(192.46, 39.185, 122.583, 1)" offset="100%"></stop>
                        </linearGradient>
                    </defs>
                <path fill="none" d="M22.2,-35.3C28.8,-34.7,34.3,-28.8,36.6,-22C38.8,-15.3,38,-7.6,35.4,-1.5C32.8,4.7,28.6,9.4,24.9,13.7C21.2,18,18.1,22,14.1,25.4C10,28.7,5,31.5,-1.1,33.3C-7.2,35.2,-14.3,36.2,-17.8,32.5C-21.2,28.8,-21,20.4,-23.1,14.2C-25.1,8,-29.4,4,-32.3,-1.7C-35.2,-7.3,-36.7,-14.7,-33,-18.1C-29.4,-21.6,-20.7,-21.1,-14.3,-22C-8,-22.8,-4,-24.9,1.9,-28.2C7.8,-31.5,15.6,-36,22.2,-35.3Z" width="100%" height="100%" transform="translate(50 50)" stroke-width="1" style="transition: 0.3s;" stroke="url(#sw-gradient)"></path>
              </svg>